<svg id="visual" viewBox="0 0 900 900" width="900" height="900" xmlns="http://www.w3.org/2000/svg" xmlns:xlink="http://www.w3.org/1999/xlink" version="1.1"><rect x="0" y="0" width="900" height="900" fill="#ddeef4"></rect><path d="M0 326L21.5 311.7C43 297.3 86 268.7 128.8 275.3C171.7 282 214.3 324 257.2 333.2C300 342.3 343 318.7 385.8 318C428.7 317.3 471.3 339.7 514.2 338.3C557 337 600 312 642.8 296C685.7 280 728.3 273 771.2 269.7C814 266.3 857 266.7 878.5 266.8L900 267L900 901L878.5 901C857 901 814 901 771.2 901C728.3 901 685.7 901 642.8 901C600 901 557 901 514.2 901C471.3 901 428.7 901 385.8 901C343 901 300 901 257.2 901C214.3 901 171.7 901 128.8 901C86 901 43 901 21.5 901L0 901Z" fill="#ffffff"></path><path d="M0 269L21.5 276.7C43 284.3 86 299.7 128.8 297.7C171.7 295.7 214.3 276.3 257.2 258.3C300 240.3 343 223.7 385.8 238.8C428.7 254 471.3 301 514.2 337.2C557 373.3 600 398.7 642.8 396C685.7 393.3 728.3 362.7 771.2 325.5C814 288.3 857 244.7 878.5 222.8L900 201L900 901L878.5 901C857 901 814 901 771.2 901C728.3 901 685.7 901 642.8 901C600 901 557 901 514.2 901C471.3 901 428.7 901 385.8 901C343 901 300 901 257.2 901C214.3 901 171.7 901 128.8 901C86 901 43 901 21.5 901L0 901Z" fill="#f3f9fc"></path><path d="M0 271L21.5 284.8C43 298.7 86 326.3 128.8 331.5C171.7 336.7 214.3 319.3 257.2 335.5C300 351.7 343 401.3 385.8 397.2C428.7 393 471.3 335 514.2 312.7C557 290.3 600 303.7 642.8 325.2C685.7 346.7 728.3 376.3 771.2 399.3C814 422.3 857 438.7 878.5 446.8L900 455L900 901L878.5 901C857 901 814 901 771.2 901C728.3 901 685.7 901 642.8 901C600 901 557 901 514.2 901C471.3 901 428.7 901 385.8 901C343 901 300 901 257.2 901C214.3 901 171.7 901 128.8 901C86 901 43 901 21.5 901L0 901Z" fill="#e7f2f8"></path><path d="M0 437L21.5 426.8C43 416.7 86 396.3 128.8 378.8C171.7 361.3 214.3 346.7 257.2 350.5C300 354.3 343 376.7 385.8 377.8C428.7 379 471.3 359 514.2 345C557 331 600 323 642.8 351.7C685.7 380.3 728.3 445.7 771.2 462.3C814 479 857 447 878.5 431L900 415L900 901L878.5 901C857 901 814 901 771.2 901C728.3 901 685.7 901 642.8 901C600 901 557 901 514.2 901C471.3 901 428.7 901 385.8 901C343 901 300 901 257.2 901C214.3 901 171.7 901 128.8 901C86 901 43 901 21.5 901L0 901Z" fill="#dbecf5"></path><path d="M0 457L21.5 449C43 441 86 425 128.8 430.7C171.7 436.3 214.3 463.7 257.2 483.2C300 502.7 343 514.3 385.8 505.7C428.7 497 471.3 468 514.2 453.3C557 438.7 600 438.3 642.8 432.2C685.7 426 728.3 414 771.2 405.8C814 397.7 857 393.3 878.5 391.2L900 389L900 901L878.5 901C857 901 814 901 771.2 901C728.3 901 685.7 901 642.8 901C600 901 557 901 514.2 901C471.3 901 428.7 901 385.8 901C343 901 300 901 257.2 901C214.3 901 171.7 901 128.8 901C86 901 43 901 21.5 901L0 901Z" fill="#cfe5f1"></path><path d="M0 508L21.5 496.2C43 484.3 86 460.7 128.8 462.7C171.7 464.7 214.3 492.3 257.2 512.8C300 533.3 343 546.7 385.8 538C428.7 529.3 471.3 498.7 514.2 498.5C557 498.3 600 528.7 642.8 534.7C685.7 540.7 728.3 522.3 771.2 516.5C814 510.7 857 517.3 878.5 520.7L900 524L900 901L878.5 901C857 901 814 901 771.2 901C728.3 901 685.7 901 642.8 901C600 901 557 901 514.2 901C471.3 901 428.7 901 385.8 901C343 901 300 901 257.2 901C214.3 901 171.7 901 128.8 901C86 901 43 901 21.5 901L0 901Z" fill="#c2dfee"></path><path d="M0 629L21.5 615.3C43 601.7 86 574.3 128.8 559.8C171.7 545.3 214.3 543.7 257.2 543.3C300 543 343 544 385.8 549.2C428.7 554.3 471.3 563.7 514.2 570.8C557 578 600 583 642.8 588.7C685.7 594.3 728.3 600.7 771.2 591.7C814 582.7 857 558.3 878.5 546.2L900 534L900 901L878.5 901C857 901 814 901 771.2 901C728.3 901 685.7 901 642.8 901C600 901 557 901 514.2 901C471.3 901 428.7 901 385.8 901C343 901 300 901 257.2 901C214.3 901 171.7 901 128.8 901C86 901 43 901 21.5 901L0 901Z" fill="#b6d9ea"></path><path d="M0 647L21.5 650.2C43 653.3 86 659.7 128.8 663.5C171.7 667.3 214.3 668.7 257.2 651.3C300 634 343 598 385.8 593.5C428.7 589 471.3 616 514.2 619.2C557 622.3 600 601.7 642.8 597.2C685.7 592.7 728.3 604.3 771.2 603.5C814 602.7 857 589.3 878.5 582.7L900 576L900 901L878.5 901C857 901 814 901 771.2 901C728.3 901 685.7 901 642.8 901C600 901 557 901 514.2 901C471.3 901 428.7 901 385.8 901C343 901 300 901 257.2 901C214.3 901 171.7 901 128.8 901C86 901 43 901 21.5 901L0 901Z" fill="#a9d3e7"></path><path d="M0 654L21.5 658.3C43 662.7 86 671.3 128.8 678.3C171.7 685.3 214.3 690.7 257.2 695C300 699.3 343 702.7 385.8 692.2C428.7 681.7 471.3 657.3 514.2 654.5C557 651.7 600 670.3 642.8 673.7C685.7 677 728.3 665 771.2 655.7C814 646.3 857 639.7 878.5 636.3L900 633L900 901L878.5 901C857 901 814 901 771.2 901C728.3 901 685.7 901 642.8 901C600 901 557 901 514.2 901C471.3 901 428.7 901 385.8 901C343 901 300 901 257.2 901C214.3 901 171.7 901 128.8 901C86 901 43 901 21.5 901L0 901Z" fill="#9ccce3"></path><path d="M0 766L21.5 760.8C43 755.7 86 745.3 128.8 740.3C171.7 735.3 214.3 735.7 257.2 729.7C300 723.7 343 711.3 385.8 706.2C428.7 701 471.3 703 514.2 700.5C557 698 600 691 642.8 699.7C685.7 708.3 728.3 732.7 771.2 738.2C814 743.7 857 730.3 878.5 723.7L900 717L900 901L878.5 901C857 901 814 901 771.2 901C728.3 901 685.7 901 642.8 901C600 901 557 901 514.2 901C471.3 901 428.7 901 385.8 901C343 901 300 901 257.2 901C214.3 901 171.7 901 128.8 901C86 901 43 901 21.5 901L0 901Z" fill="#8ec6e0"></path><path d="M0 812L21.5 803.7C43 795.3 86 778.7 128.8 777.2C171.7 775.7 214.3 789.3 257.2 792C300 794.7 343 786.3 385.8 783.7C428.7 781 471.3 784 514.2 790.8C557 797.7 600 808.3 642.8 812.2C685.7 816 728.3 813 771.2 812.8C814 812.7 857 815.3 878.5 816.7L900 818L900 901L878.5 901C857 901 814 901 771.2 901C728.3 901 685.7 901 642.8 901C600 901 557 901 514.2 901C471.3 901 428.7 901 385.8 901C343 901 300 901 257.2 901C214.3 901 171.7 901 128.8 901C86 901 43 901 21.5 901L0 901Z" fill="#80c0dc"></path><path d="M0 837L21.5 834.8C43 832.7 86 828.3 128.8 830.7C171.7 833 214.3 842 257.2 844C300 846 343 841 385.8 840.5C428.7 840 471.3 844 514.2 845C557 846 600 844 642.8 840.7C685.7 837.3 728.3 832.7 771.2 829.2C814 825.7 857 823.3 878.5 822.2L900 821L900 901L878.5 901C857 901 814 901 771.2 901C728.3 901 685.7 901 642.8 901C600 901 557 901 514.2 901C471.3 901 428.7 901 385.8 901C343 901 300 901 257.2 901C214.3 901 171.7 901 128.8 901C86 901 43 901 21.5 901L0 901Z" fill="#71bad9"></path></svg>